<?xml version="1.0" encoding="UTF-8" standalone="no"?><!DOCTYPE svg PUBLIC "-//W3C//DTD SVG 1.1//EN" "http://www.w3.org/Graphics/SVG/1.1/DTD/svg11.dtd"><svg width="100%" height="100%" viewBox="0 0 461 260" version="1.1" xmlns="http://www.w3.org/2000/svg" xmlns:xlink="http://www.w3.org/1999/xlink" xml:space="preserve" xmlns:serif="http://www.serif.com/" style="fill-rule:evenodd;clip-rule:evenodd;stroke-linejoin:round;stroke-miterlimit:2;"><g id="_1764907451642.jpg" serif:id="1764907451642.jpg"><path d="M365.601,207.166c-1.696,0.869 -6.83,-4.505 -8.725,-9.107c-3.825,-9.286 1.555,-20.772 -6.813,-22.066c-10.954,-1.694 -13.222,15.984 -13.671,15.735c-0.02,-0.011 -3.303,-11.481 4.409,-22.481c3.51,-5.007 18.577,-16.185 16.048,-39.145c-0.165,-1.501 -2.027,-6.772 0.585,-3.059c14.173,20.146 -2.692,29.698 5.146,34.277c4.428,2.586 7.422,-5.64 6.125,-9.343c-1.985,-5.671 1.557,0.043 1.624,0.155c5.119,8.519 -3.159,21.013 5.009,22.967c2.191,0.524 8.838,-4.01 11.484,7.264c0.173,0.737 2.894,0.956 2.956,-8.984c0.048,-7.615 9.357,-7.727 3.842,-15.518c-1.113,-1.572 -6.565,-8.583 0.292,-16.727c1.558,-1.85 -0.982,5.771 2.426,9.322c6.108,6.362 11.702,-10.588 -1.155,-17.31c-9.948,-5.201 -29.425,-0.273 -30.706,-19.188c-0.287,-4.235 1.745,5.728 9.933,7.846c9.898,2.56 7.676,-10.168 -5.377,-14.756c-2.557,-0.899 -23.024,-3.24 -18.332,-25.391c0.758,-3.579 1.014,1.219 1.021,1.355c0.533,9.984 8.115,10.434 8.607,3.334c1.141,-16.454 -17.592,-17.254 -22.358,-31.917c-1.869,-5.751 -1,-7.895 -0.403,-6.473c1.79,4.264 3.534,11.743 21.096,15.623c2.729,0.603 -7.98,-9.957 2.581,-23.178c0.209,-0.262 5.263,-6.588 3.338,-2.535c-6.524,13.738 5.324,19.232 9.55,10.819c5.215,-10.382 -5.552,-26.912 -22.563,-32.751c-7.338,-2.519 2.579,-0.369 2.799,-0.321c38.467,8.338 32.403,32.896 42.311,34.296c4.026,0.569 7.862,-6.515 -1.843,-16.35c-2.916,-2.955 8.317,2.588 12.172,9.624c4.736,8.643 2.529,20.781 11.133,19.142c6.107,-1.163 11.952,-11.24 12.815,-17.802c1.004,-7.636 3.292,6.942 -0.48,16.169c-4.22,10.322 -19.271,21.59 -7.93,41.739c0.97,1.723 5.574,6.894 1.161,3.659c-20.684,-15.166 -8.382,-28.301 -16.023,-31.701c-1.429,-0.636 -8.673,1.388 -3.356,11.97c1.528,3.042 -6.026,-1.911 -6.242,-9.504c-0.089,-3.128 0.596,-9.041 -6.102,-12.425c-11.2,-5.659 -22.676,13.41 -15.527,22.728c3.174,4.137 9.931,0.152 5.548,-8.89c-1.517,-3.129 6.073,1.925 5.31,10.487c-0.235,2.635 -3.436,11.055 3.791,15.025c7.51,4.125 8.1,3.837 11.877,11.534c2.013,4.102 8.439,-7.606 -1.3,-14.397c-3.534,-2.464 8.353,0.643 11.55,9.739c2.719,7.734 -0.603,18.531 8.2,19.403c3.569,0.353 8.417,-4.53 8.639,-10.87c0.232,-6.635 5.682,9.232 -2.117,17.456c-0.882,0.93 -12.045,10.349 -7.95,13.911c2.978,2.59 8.197,-6.125 7.017,-2.384c-4.132,13.104 -12.384,11.551 -11.666,24.729c0.949,17.427 0.52,21.142 -14.488,33.102c-7.885,6.283 3.051,-2.356 5.154,-12.208c1.185,-5.548 -4.098,-8.705 -7.467,-1.417c-3.261,7.053 -8.844,34.265 -43.625,46.843c-0.236,0.085 -15.83,5.683 -3.136,0.037c11.726,-5.214 34.334,-28.745 24.768,-43.889c-4.772,-7.554 -18.468,-2.326 -10.964,11.795Z" style="fill:#ffb200;"/><path d="M345.522,108.54c-0.945,-3.643 -3.822,-6.818 -2.973,-3.164c0.179,0.77 -0.269,15.296 4.625,10.861c5.743,-5.204 -0.158,-17.173 3.235,-10.242c9.44,19.286 -12.497,29.196 -8.898,40.3c0.715,2.205 5.193,-0.587 7.003,-6.341c1.694,-5.385 1.585,7.175 -3.847,14.234c-6.941,9.021 -10.614,6.43 -14.126,17.269c-1.091,3.367 -2.335,8.825 -9.471,12.669c-1.679,0.904 4.334,-7.318 -0.481,-8.137c-6.015,-1.024 -9.679,13.376 2.842,22.636c4.839,3.579 -9.763,-1.984 -15.473,-9.684c-8.549,-11.531 -9.313,-22.943 -12.536,-19.837c-1.069,1.031 -1.566,4.903 0.86,9.075c3.577,6.15 -5.233,-2.45 -7.316,-7.739c-3.804,-9.659 0.816,-12.599 -6.157,-22.432c-10.388,-14.651 -4.273,-26.673 -4.099,-24.048c0.503,7.581 2.932,6.486 3.259,6.044c8.174,-11.042 -11.781,-24.766 -0.628,-43.526c3.577,-6.017 7.718,-9.415 5.994,-17.708c-0.913,-4.392 5.302,4.778 2.37,13.311c-0.171,0.496 -2.57,7.481 -0.508,6.542c8.66,-3.946 7.269,-21.726 7.394,-22.675c1.455,-11.042 11.869,-17.775 9.627,-14.357c-7.103,10.827 3.532,17.171 7.061,9.007c3.747,-8.668 -6.331,-13.967 1.669,-29.366c4.235,-8.153 -2.144,3.858 1.591,12.256c3.548,7.976 10.96,11.692 10.85,23.858c-0.007,0.797 -1.42,9.258 4.163,10.489c4.44,0.979 7.504,-5.883 2.993,-11.988c-2.538,-3.435 10.473,3.344 8.035,14.354c-1.936,8.744 -1.097,8.877 2.414,17.048c1.697,3.95 1.9,11.321 0.525,11.291Zm-31.356,48.203c-0.13,-2.391 -0.11,-2.329 -0.258,-4.755c-0.499,-8.212 6.658,-11.213 7.317,-17.108c0.258,-2.308 -1.998,-7.09 0.24,-4.168c4.136,5.401 2.301,8.149 0.311,12.799c-2.736,6.392 4.997,8.602 8.03,0.923c5.292,-13.397 -5.934,-26.74 -7.147,-29.127c-3.778,-7.436 -0.894,-17.634 -0.223,-10.857c0.631,6.374 6.567,9.68 7.961,5.148c1.943,-6.318 -5.236,-4.916 -6.414,-18.481c-0.684,-7.872 -6.425,-2.877 -7.406,-1.707c-6.201,7.397 0.054,19.711 -3.424,13.955c-6.404,-10.601 2.528,-16.472 -5.376,-24.12c-2.992,-2.895 4.535,5.847 -6.333,16.953c-13.75,14.052 -5.721,28.003 -0.969,24.647c6.795,-4.798 -3.014,-17.859 2.365,-11.443c10.429,12.44 -2.367,22.634 -4.081,31.172c-2.314,11.527 6.131,15.688 7.42,16.845c4.563,4.097 1.64,8.053 3.893,6.731c3.561,-2.089 4.025,-6.735 4.092,-7.408Z" style="fill:#ffb200;"/><path d="M201.297,121.15c0.459,0.352 1.964,8.222 5.244,7.737c5.546,-0.821 -5.611,-12.599 -1.836,-22.033c3.254,-8.134 3.971,-8.439 1.014,-16.747c-6.104,-17.148 8.835,-17.895 7.011,-31.791c-0.212,-1.614 2.546,0.75 2.851,6.174c0.202,3.593 -5.732,15.378 1.381,13.303c8.86,-2.585 2.978,-20.09 2.821,-20.903c-1.919,-9.926 9.818,-22.139 8.008,-17.624c-7.242,18.069 6.45,23.375 10.444,20.313c10.034,-7.691 -8.42,-17.571 -3.471,-32.589c1.66,-5.037 7.704,-13.594 4.66,-6.212c-5.5,13.34 8.092,23.584 11.171,27.173c10.138,11.821 3.312,30.191 12.031,28.99c8.737,-1.204 -8.398,-15.813 3.446,-27.972c3.381,-3.471 -0.171,1.533 -0.716,5.524c-1.292,9.455 20.912,21.159 0.355,46.896c-6.008,7.522 -16.652,12.23 -14.157,9.657c11.09,-11.436 5.109,-27.793 -0.266,-24.074c-4.577,3.167 1.9,10.662 -0.549,9.345c-7.538,-4.054 -3.541,-14.151 -8.632,-19.875c-0.104,-0.117 -0.758,-0.853 -1.407,1.351c-1.608,5.463 -9.854,9.217 -10.748,9.754c-8.911,5.349 -7.078,12.692 -3.993,13.658c6.717,2.104 8.946,-9.672 9.421,-6.697c1.567,9.811 -8.023,15.323 -10.63,17.71c-9.755,8.928 -4.715,23.175 0.25,18.317c5.977,-5.848 1.743,-16.671 4.192,-12.192c8.243,15.078 -8.194,23.088 -1.555,34.955c5.866,10.487 11.144,2.817 12.295,1.68c4.87,-4.812 8.953,-3.772 7.61,-2.901c-6.147,3.984 -4.753,11.126 -0.146,11.099c9.962,-0.059 11.343,-19.915 0.969,-19.914c-6.526,0 6.24,-5.855 10.744,0.859c3.541,5.279 0.515,-16.42 -13.199,-10.338c-10.173,4.511 -8.029,18.701 -9.239,11.02c-3.552,-22.533 20.506,-22.974 24.458,-24.812c9.74,-4.531 11.493,-11.493 11.596,-11.636c0.55,-0.766 2.306,0.399 -1.254,11.713c-5.754,18.281 5.517,28.699 8.132,38.613c4.521,17.138 -1.497,26.542 -1.084,23.708c1.215,-8.336 -3.391,-17.175 -8.292,-17.038c-9.259,0.26 0.628,13.464 -16.266,26.415c-4.785,3.668 1.013,-1.829 2.271,-7.015c2.424,-9.991 -10.864,-1.937 -10.196,14.308c0.349,8.476 8.013,17.253 2.309,10.949c-9.001,-9.949 -8.327,-13.957 -9.354,-22.854c-1.879,-16.264 -11.382,-13.117 -12.089,-10.456c-1.429,5.382 8.78,11.56 2.953,8.907c-14.78,-6.728 -14.516,-16.752 -15.212,-23.639c-1.687,-16.71 -7.531,-15.504 -11.497,-24.23c-3.448,-7.585 -2.478,-7.833 -2.22,-16.135l0.377,-0.45Z" style="fill:#ffb200;"/><path d="M138.15,178.936c-6.474,-11.996 2.198,-25.457 2.872,-30.265c1.183,-8.437 -5.998,-18.341 -0.111,-26.136c1.957,-2.591 -1.747,6.434 3.332,9.412c2.624,1.539 5.574,-3.889 1.776,-15.594c-1.578,-4.864 -4.895,-13.137 2.216,-24.577c2.826,-4.546 -3.291,9.722 2.698,14.472c3.93,3.117 8.209,-5.694 4.942,-13.129c-1.529,-3.48 -4.73,-8.379 -3.207,-17.233c0.427,-2.483 3.869,-10.563 2.962,-3.787c-0.633,4.727 4.518,11.712 7.715,2.897c3.862,-10.648 2.758,-23.725 32.231,-37.575c8.945,-4.204 -2.502,1.731 -8.36,9.645c-13.561,18.322 -5.167,31.757 -0.34,23.054c2.989,-5.389 0.248,-13.741 2.394,-7.941c6.435,17.392 -8.591,27.193 -3.675,41.297c1.338,3.84 7.416,4.721 6.446,-4.249c-0.148,-1.368 -2.44,-10.347 3.653,-15.983c2.422,-2.24 -1.187,2.404 -0.757,7.411c0.791,9.204 5.888,9.247 1.358,23.22c-8.947,27.598 11.236,35.106 11.804,48.56c1.392,32.956 -2.184,35.446 -14.968,53.196c-9.578,13.298 4.058,-4.066 5.903,-20.358c2.381,-21.02 -5.353,-23.02 -7.519,-18.461c-3.182,6.699 5.016,18.432 1.091,13.9c-13.021,-15.032 -4.627,-17.495 -4.86,-30.163c-0.116,-6.348 -3.758,-11.951 -6.464,-5.717c-2.496,5.749 2.029,13.213 -1.083,8.292c-6.81,-10.769 3.016,-19.736 1.215,-30.18c-0.075,-0.432 -0.06,-2.649 -1.538,-0.925c-3.919,4.571 -11.934,7.576 -8.583,18.544c0.888,2.906 -5.598,-3.586 -4.516,-9.011c0.456,-2.287 -1.043,-1.783 -3.927,-0.309c-15.314,7.83 -7.902,24.936 -1.187,15.395c1.803,-2.562 2.025,-7.947 2.481,-4.634c2.14,15.561 -8.149,12.035 -11.016,22.299c-1.577,5.646 0.946,16.897 8.245,26.646c3.023,4.038 -9.89,-5.529 -15.55,-19.566c-1.203,-2.984 -4.793,-15.754 -6.979,-9.478c-1.49,4.279 0.885,7.122 -0.696,7.033Zm23.181,-48.921l0.422,0.059c3.78,-9.545 10.898,-4.67 14.127,-8.699c6.676,-8.331 -2.153,-17.211 -3.719,-25.001c-0.977,-4.861 1.399,-10.952 -0.723,-7.515c-5.246,8.499 -3.737,12.834 -3.339,18.897c0.487,7.419 -4.883,10.73 -6.538,13.914c-0.324,0.623 -2.932,5.642 -0.53,8.757c0.103,0.134 0.195,-0.545 0.299,-0.411Z" style="fill:#ffb200;"/><path d="M26.748,40.482c2.444,16.538 14.791,19.044 19.331,23.26c1.641,1.524 1.181,1.822 2.69,3.423c1.651,1.752 -1.138,-5.081 1.235,-12.202c1.825,-5.477 -2.437,0.189 -3.104,1.606c-1.748,3.715 -0.661,-3.933 0.272,-6.83c9.226,-28.658 40.32,-37.598 33.066,-33.626c-20.145,11.03 -27.755,41.058 -16.806,44.901c7.503,2.634 3.85,-9.289 4.069,-14.125c0.288,-6.357 6.002,-11.786 6.812,-11.822c3.069,-0.137 -7.567,4.853 -1.636,17.636c4.56,9.827 3.606,10.65 0.569,18.882c-3.879,10.516 3.082,19.976 6.723,16.16c6.072,-6.365 -5.801,-18.369 0.415,-12.166c8.27,8.253 4.179,18.496 3.755,24.09c-0.688,9.073 5.507,22.088 5.698,17.112c0.11,-2.869 4.642,-9.385 5.161,-10.132c8.974,-12.905 -5.446,-20.092 10.241,-36.422c7.295,-7.594 -4.582,3.999 -1.794,14.2c1.45,5.306 6.024,3.041 8.044,-5.649c2.715,-11.68 -3.948,-15.279 9.98,-26.033c5.399,-4.168 -3.069,2.954 -2.115,8.919c1.808,11.312 21.934,-16.982 4.848,-38.522c-5.152,-6.495 12.951,7.281 14.084,24.251c0.684,10.249 -3.088,15.32 -2.968,15.663c0.142,0.406 0.513,0.82 4.936,-2.123c11.619,-7.732 12.172,-28.958 11.201,-15.009c-1.196,17.173 -10.948,23.388 -17.598,30.55c-7.381,7.95 -10.827,19.683 -7.004,25.91c2.826,4.602 2.431,-1.248 3.051,-5.09c1.977,-12.245 10.852,-16.51 10.965,-16.515c1.122,-0.051 -1.694,2.819 -1.708,2.839c-8.763,12.895 3.683,19.937 -7.064,38.269c-8.52,14.534 -3.515,24.515 -1.87,22.729c3.207,-3.481 0.892,-12.932 2.427,-9.171c6.227,15.258 -4.903,20.818 -3.327,33.199c2.455,19.286 17.175,28.488 12.529,26.436c-10.276,-4.536 -11.593,-6.986 -16.394,-12.485c-7.094,-8.125 -15.597,14.782 -12.802,27.893c0.033,0.154 1.012,4.745 -0.363,1.937c-1.236,-2.525 -10.447,-17.077 -0.975,-36.233c7.244,-14.65 2.189,-15.503 1.08,-15.029c-6.066,2.597 -6.554,16.269 -7.039,10.755c-0.972,-11.045 3.037,-17.083 4.57,-19.958c12.994,-24.363 -3.194,-29.703 3.296,-45.65c2.377,-5.84 -5.841,4.257 -7.196,7.579c-2.589,6.348 -0.992,9.399 -0.083,13.415c2.169,9.582 -3.908,18.046 -2.634,11.839c0.735,-3.581 -0.572,-8.628 -3.796,-8.733c-6.825,-0.222 -1.13,12.121 -0.962,20.621c0.291,14.787 -10.189,22.766 -8.914,19.997c7.735,-16.803 -1.072,-21.732 -4.984,-28.497c-2.19,-3.787 -2.018,-8.991 -2.762,-6.256c-1.856,6.825 2.11,11.647 -0.516,8.709c-6.078,-6.799 -4.594,-11.78 -4.097,-17.242c1.278,-14.054 -11.577,-11.291 -11.118,-24.731c-0.124,-0.592 -0.028,-0.734 -0.67,-0.733c-8.962,19.684 1.919,20.754 -0.455,32.545c-0.997,4.952 -7.407,16.642 -1.152,15.432c3.022,-0.585 5.943,-6.075 5.5,-11.648c-0.376,-4.732 3.508,5.861 2.103,11.481c-0.64,2.561 -12.022,26.575 1.439,35.583c2.034,1.361 5.53,0.218 3.552,-5.562c-0.332,-0.97 -3.035,-8.867 0.292,-12.816c1.575,-1.87 -1.279,3.83 2.522,9.264c7.221,10.32 12.107,10.856 10.672,27.719c-0.487,5.727 -0.615,-9.085 -7.563,-9.644c-10.193,-0.819 5.204,30.858 34.362,46.535c11.202,6.023 -3.454,-0.067 -3.529,-0.096c-49.283,-19.062 -41.294,-42.484 -60.761,-49.728c-0.111,-0.041 -8.109,-1.638 -13.251,-8.055c-4.323,-5.395 -5.698,-14.482 -4.124,-12.06c8.948,13.762 15.991,6.324 13.618,0.215c-5.809,-14.952 -20.428,-12.297 -15.979,-35.191c2.755,-14.176 -5.887,-16.715 -3.143,-16.904c0.438,-0.03 5.45,3.333 6.941,7.049c2.522,6.287 0.911,21.602 8.687,17.825c3.767,-1.83 6.422,-10.49 -0.149,-19.641c-6.681,-9.304 -10.161,-8.781 -8.406,-23.962c2.507,-21.688 -12.299,-24.638 -9.912,-26.139c0.612,-0.385 9.645,5.022 13.095,11.07c6.994,12.259 3.689,20.05 5.694,16.772c3.763,-6.152 4.561,-19.797 -8.06,-33.358c-0.043,-0.046 -13.456,-10.686 -11.673,-28.246c0.01,-0.096 0.019,-0.18 0.027,-0.254c-0.001,-0.004 -0.002,-0.008 -0.002,-0.012l0.003,-1.034c0,-0.088 0.042,-0.17 0.112,-0.223l0.483,-0.362c0.02,-0.015 0.046,-0.018 0.069,-0.008c0.023,0.01 0.039,0.031 0.042,0.055l0.197,1.601Z" style="fill:#ffb200;"/></g></svg>