<?xml version="1.0" encoding="UTF-8" standalone="no"?><!DOCTYPE svg PUBLIC "-//W3C//DTD SVG 1.1//EN" "http://www.w3.org/Graphics/SVG/1.1/DTD/svg11.dtd"><svg width="100%" height="100%" viewBox="0 0 720 720" version="1.1" xmlns="http://www.w3.org/2000/svg" xmlns:xlink="http://www.w3.org/1999/xlink" xml:space="preserve" xmlns:serif="http://www.serif.com/" style="fill-rule:evenodd;clip-rule:evenodd;stroke-linejoin:round;stroke-miterlimit:2;"><g id="MAGOS-LOGO" serif:id="MAGOS LOGO"><path d="M413.073,208.959c1.558,12.979 1.828,-2.178 1.823,-2.42c-0.892,-44.157 34.232,-72.406 35.458,-71.981c1.969,0.683 0.677,1.431 -1.056,6.872c-20.178,63.354 25.211,111.777 32.833,169.966c12.755,97.378 -53.974,120.017 -81.236,156.829c-14.287,19.292 -12.434,39.606 -13.695,26.225c-2.806,-29.798 13.727,-51.388 22.979,-70.314c32.144,-65.754 13.694,-105.54 -1.448,-144.373c-0.907,-2.327 -2.733,-2.31 -2.783,0.188c-0.973,48.728 -24.139,63.565 -44.771,99.324c-9.315,16.144 -5.551,31.407 -9.513,28.295c-31.115,-24.435 -51.05,-78.069 -53.871,-85.657c-7.445,-20.03 -6.221,-32.072 -8.862,-23.062c-17.719,60.425 -10.487,83.949 -9.441,89.381c10.032,52.123 46.293,64.169 27.663,56.782c-37.906,-15.031 -51.679,-28.185 -55.37,-31.71c-61.633,-58.866 -11.083,-131.611 -3.481,-169.53c8.709,-43.436 -9.569,-63.028 -10.797,-65.182c-4.76,-8.348 63.319,18.161 93.219,93.119c10.779,27.023 10.22,42.594 13.547,38.455c24.847,-30.924 10.094,-69.808 7.94,-75.485c-12.912,-34.03 -82.78,-115.363 -5.207,-193.119c14.217,-14.25 42.748,-34.863 36.507,-26.207c-9.713,13.469 -11.087,12.688 -16.745,28.315c-20.398,56.343 9.252,94.171 19.064,108.54c24.59,36.011 26.546,55.455 27.242,56.747Z" style="fill:#ffb200;"/><path d="M349.535,596.248c0.729,0.698 5.635,7.588 35.795,23.466c2.471,1.301 33.621,17.701 19.275,29.094c-14.471,11.493 -52.982,-9.594 -58.999,-12.591c-25.563,-12.73 -46.574,-44.902 -54.957,-50.818c-9.537,-6.731 19.03,37.686 20.03,39.276c24.666,39.174 62.737,49.301 61.07,69.872c-1.431,17.669 -26.973,3.074 -35.252,-1.623c-55.571,-31.531 -75.169,-88.606 -79.542,-88.986c-2.888,-0.251 0.323,7.06 2.642,14.891c13.565,45.809 42.838,63.285 43.842,69.985c2.629,17.536 -43.989,-9.663 -57.563,-29.482c-7.515,-10.972 -31.603,-81.904 -39.607,-78.419c-1.227,0.534 9.328,34.963 2.218,23.685c-25.458,-40.384 -69.365,-43.162 -81.413,-104.578c-3.328,-16.965 -1.399,-49.728 3.393,-31.49c4.021,15.302 21.935,40.592 35.445,31.171c22.738,-15.856 -28.453,-50.819 -26.555,-97.423c1.79,-43.928 34.619,-54.399 24.432,-107.147c-0.31,-1.607 1.525,-2.898 3.183,-0.761c41.906,53.991 -0.745,87.466 45.758,127.738c47.558,41.185 84.076,43.673 118.641,58.602c22.433,9.689 14.95,26.904 49.199,46.016c7.487,4.178 -6.8,13.305 -7.373,13.61c-26.397,14.069 -40.999,-18.347 -49.742,-21.716c-32.122,-12.38 4.512,56.45 26.079,77.627Z" style="fill:#ffb200;"/><path d="M542.511,562.047c-0.495,-0.188 -0.809,-0.679 -0.771,-1.208c1.917,-27.003 2.809,-28.8 0.544,-28.348c-0.517,0.103 -6.507,10.388 -9.006,17.786c-14.154,41.899 2.872,65.695 -31.75,97.673c-1.792,1.655 -25.441,23.498 -25.721,16.368c-0.112,-2.843 6.481,-2.812 19.325,-37.056c1.517,-4.046 10.309,-27.487 12.247,-52.605c0.83,-10.767 -2.884,1.556 -7.375,11.447c-18.774,41.347 -23.297,71.246 -73.208,104.654c-24.53,16.419 -26.315,6.006 -26.68,3.88c-4.463,-26.03 38.923,-39.583 52.095,-84.019c17.811,-60.086 7.976,-104.864 -15.345,-71.701c-9.127,12.978 -22.326,38.458 -49.409,29.917c-3.469,-1.094 -12.801,-7.226 -8.082,-11.586c22.403,-20.695 23.807,-20.554 39.722,-64.061c17.918,-48.981 59.023,-54.196 91.992,-97.762c23.505,-31.06 -4.245,-68.184 16.62,-101.154c10.404,-16.44 13.08,-15.788 13.301,-14.244c0.056,0.389 -8.396,20.653 4.228,46.275c17.358,35.23 40.518,58.816 13.257,112c-1.906,3.718 -21.005,33.54 -3.159,41.572c12.328,5.548 19.681,-17.359 20.371,-19.507c4.076,-12.699 2.605,-29.068 6.295,-16.176c19.34,67.558 -15.968,86.92 -35.92,114.337c-1.733,2.382 -1.594,4.275 -3.569,3.521Z" style="fill:#ffb200;"/></g></svg>